<svg xmlns="http://www.w3.org/2000/svg" xmlns:xlink="http://www.w3.org/1999/xlink"><defs><clipPath id="a"><path fill="#fff" d="M0 0h20v20H0z"/></clipPath></defs><symbol id="developer-logo" viewBox="0 0 27 34"><path d="M13.64.02 13.5 0 0 1.4v24.61L13.5 34 27 26.01V1.41L13.64 0Zm11.6 25L13.5 31.96 1.77 25.02v-10.1l11.68 6.93.02 1.25-8.02-4.75v1.23l8.04 4.8.02 1.3-8.05-4.76v1.22l8.04 4.81 8.12-4.83V16.9l3.62-2.15v10.26Zm0-11.57L22 15.33l-1.48.88-7.06-4.19-.01 1.23 6.04 3.57-.06.03-.13.07-.86.5-4.98-2.95-.01 1.22 3.93 2.33-.93.61-.02.01-2.97-1.74-.01 1.23 1.94 1.13-1.98 1.19L1.8 13.58l11.63-6.96 11.8 6.83Zm0-1.22L13.43 5.3 1.77 12.22V2.99L13.5 1.76 25.23 3v9.24Z"/></symbol><symbol id="icon-email"><path stroke="#222" stroke-width="1.3" d="M.65 6v8m17-8v8M0 13.35h18m-18-12h18m-.65 1.832L9 9.677.65 3.182V1.65h16.7v1.532Z"/></symbol><symbol id="icon-tel"><g clip-path="url(#a)" fill="#000"><path d="M17.9 9.4H9.4v1.2h8.5l-2.1 2.1.9.9 3.1-3.1a.75.75 0 0 0 0-.9l-3.1-3.1-.9.9 2.1 2Zm-9.8 10v-6.2a.65.65 0 0 0-.6-.6H3.1a1.22 1.22 0 0 0 1.2 1.2h2.5v5H3.1a1.789 1.789 0 0 1-1.9-1.7v-14a1.77 1.77 0 0 1 1.7-1.8h3.9v5H4.4a1.22 1.22 0 0 0-1.2 1.2h4.4a.65.65 0 0 0 .6-.6V.6a.86.86 0 0 0-.7-.6H3.1A3 3 0 0 0 0 2.9v13.9a2.89 2.89 0 0 0 2.9 3.1h4.6a.5.5 0 0 0 .6-.5Z"/></g></symbol><symbol id="slider-toggle" viewBox="0 0 40 40"><rect x="1" y="1" width="38" height="38" rx="19" stroke="currentColor" stroke-width="2" fill="#fff"/><path d="m16 11-8 9 8 9V11Zm16 9-8-9v18l8-9Z" fill="currentColor"/></symbol><symbol id="telegram"><path fill-rule="evenodd" clip-rule="evenodd" d="M19.46.153c.18.15.265.382.227.611l-2.626 15.757a.657.657 0 0 1-1.012.439l-7.878-5.253a.656.656 0 0 1-.149-.956l2.611-3.263-4.36 2.906a.657.657 0 0 1-.658.041L.363 7.81a.657.657 0 0 1 .073-1.205L18.819.038a.657.657 0 0 1 .642.115ZM2.327 7.323 5.862 9.09l7.561-5.04a.656.656 0 0 1 .877.956l-4.805 6.006 6.438 4.292L18.208 1.65 2.326 7.323Z"/></symbol><symbol id="vk"><path d="M1 5.339c0-.855.515-1.316 1.545-1.383l3.97.025a.52.52 0 0 1 .533.377c.409 1.257.866 2.343 1.372 3.257.506.913 1.168 1.965 1.985 3.156.071.15.187.226.346.226.125 0 .223-.059.293-.176l.08-.277.027-4.35c0-.302-.075-.503-.226-.604-.151-.1-.431-.176-.84-.226-.32-.05-.48-.235-.48-.553 0-.067.01-.118.027-.151.373-1.09 1.44-1.635 3.198-1.635L14.322 3c.675 0 1.234.16 1.678.478.444.318.666.821.666 1.509v5.708c.125.084.24.126.347.126.266 0 .497-.15.692-.453 1.954-2.582 3.011-4.308 3.17-5.18 0-.017.019-.059.054-.126.125-.251.329-.47.613-.654.284-.184.533-.31.746-.377a.554.554 0 0 1 .24-.05h4.13l.266.025c.355 0 .63.16.826.478.07.1.12.21.146.327.027.117.045.234.054.352.009.117.013.184.013.2v.177c-.124.687-.44 1.42-.946 2.2-.506.78-1.15 1.622-1.931 2.528-.782.905-1.27 1.5-1.466 1.785-.16.201-.24.386-.24.553 0 .135.071.286.213.453l3.89 4.627c.213.269.32.562.32.88 0 .386-.16.705-.48.956-.32.252-.701.394-1.145.428l-.453.025h-4.05a.855.855 0 0 0-.106.012.862.862 0 0 1-.107.013c-.39 0-.755-.16-1.092-.478-.125-.134-.96-1.123-2.505-2.967a1.387 1.387 0 0 0-.373-.327c-.07.268-.164.654-.28 1.157-.115.503-.2.863-.253 1.081l-.08.427c-.177.587-.55.94-1.119 1.057l-.373.025h-2.61c-1.475 0-2.945-.637-4.41-1.911-1.466-1.275-2.784-2.922-3.957-4.942-1.172-2.02-2.264-4.372-3.277-7.054A1.916 1.916 0 0 1 1 5.338Zm16.013 6.513c-.373 0-.71-.096-1.013-.29-.302-.192-.453-.456-.453-.791V4.987c0-.336-.089-.575-.266-.717-.178-.143-.489-.214-.933-.214l-1.518.05c-.764 0-1.341.126-1.732.378.781.352 1.172.922 1.172 1.71v4.426a1.5 1.5 0 0 1-.533 1.044 1.59 1.59 0 0 1-1.066.414c-.532 0-.94-.243-1.225-.729C8.06 9.371 7.03 7.493 6.356 5.716l-.24-.654-3.544-.025c-.231 0-.36.013-.386.038-.027.025-.04.096-.04.213 0 .151.017.31.053.478l.56 1.409c1.491 3.638 3.112 6.505 4.862 8.6 1.75 2.096 3.468 3.144 5.155 3.144h2.665c.106 0 .186-.03.24-.088.053-.06.097-.172.133-.34l.053-.251.506-2.213c.142-.302.267-.503.373-.604a.975.975 0 0 1 .693-.277c.426 0 .861.243 1.305.73l2.265 2.716c.142.218.293.327.453.327h4.396c.533 0 .8-.126.8-.378a.466.466 0 0 0-.08-.251l-3.864-4.552c-.302-.352-.453-.73-.453-1.131 0-.403.142-.788.427-1.157.23-.336.679-.893 1.345-1.673a37.63 37.63 0 0 0 1.745-2.187c.498-.68.826-1.296.986-1.849l.08-.327a.371.371 0 0 1-.027-.163.574.574 0 0 0-.026-.189h-4.183c-.267.1-.48.252-.64.453l-.16.478c-.444 1.156-1.607 2.942-3.49 5.356a1.892 1.892 0 0 1-1.305.503Z"/></symbol><symbol id="youtube"><path d="m15.85 8.793-5.236-3.491a.655.655 0 0 0-1.014.545v6.982a.655.655 0 0 0 1.014.546l5.237-3.491a.654.654 0 0 0 0-1.091Zm-4.94 2.814V7.07l3.403 2.27-3.404 2.268Zm12.48-8.563a2.4 2.4 0 0 0-1.452-1.637C18.218-.022 12.251 0 12 0c-.25 0-6.218-.022-9.938 1.407A2.4 2.4 0 0 0 .61 3.044C.327 4.113 0 6.076 0 9.338c0 3.262.327 5.226.61 6.295a2.4 2.4 0 0 0 1.452 1.636c3.72 1.43 9.687 1.407 9.938 1.407h.076c.753 0 6.317-.043 9.862-1.407a2.4 2.4 0 0 0 1.451-1.636c.284-1.07.611-3.033.611-6.295s-.327-5.225-.61-6.294Zm-1.266 12.261a1.09 1.09 0 0 1-.655.742c-3.49 1.342-9.404 1.32-9.469 1.32-.066 0-5.978.022-9.47-1.32a1.09 1.09 0 0 1-.654-.742c-.261-1.003-.567-2.847-.567-5.967 0-3.12.306-4.963.567-5.967a1.09 1.09 0 0 1 .655-.742C6.02 1.287 11.934 1.31 12 1.31c.066 0 5.978-.022 9.47 1.32a1.092 1.092 0 0 1 .654.742c.262 1.004.567 2.847.567 5.967 0 3.12-.305 4.964-.567 5.968Z"/></symbol></svg>