<svg width="20" height="20" fill="none" xmlns="http://www.w3.org/2000/svg"><g clip-path="url(#a)" fill="#000"><path d="M17.9 9.4H9.40002v1.2H17.9l-2.1 2.1.9.9 3.1-3.1c.0974-.1298.15-.2877.15-.45 0-.16228-.0526-.32018-.15-.45l-3.1-3.1-.9.9 2.1 2ZM8.09995 19.4v-6.2c-.01155-.1553-.07847-.3013-.18859-.4114-.11011-.1101-.25611-.177-.41141-.1886h-4.4c.00515.3167.13323.6189.35717.8428.22394.224.52618.3521.84283.3572h2.5v5h-3.7c-.23676.0149-.4741-.0175-.69825-.0952-.22414-.0777-.43061-.1991-.6074-.3573-.17679-.1582-.32037-.3499-.42241-.5641-.10203-.2141-.16047-.4464-.17194-.6834V3.10001c-.0082-.46271.16515-.91024.48291-1.2467.31776-.33645.75466-.53507 1.21709-.5533h3.9v5h-2.4c-.31665.00515-.61889.13323-.84283.35717-.22394.22394-.35202.52618-.35717.84283h4.4c.1553-.01155.3013-.07847.41141-.18859.11012-.11012.17704-.25611.18859-.41141V.600012c-.04769-.15614-.13884-.295478-.2628-.401727-.12396-.1062498-.2756-.1750201-.4372-.19827263h-4.4C2.70593-.0133408 2.31315.0511002 1.94405.189651c-.3691.138551-.70727.348494-.995178.617826-.287907.269333-.519903.592773-.682726.951823-.162822.35905-.2532771.74668-.2661924 1.14071V16.8c-.028979.3977.0246358.797.1574724 1.1729.132837.376.342022.7203.614399 1.0115.272375.2912.602055.5228.968295.6804.36625.1576.76114.2376 1.15983.2352h4.6c.07349.015.14942.0133.22215-.005.07274-.0183.14043-.0527.19805-.1008.05762-.048.1037-.1083.13482-.1766.03113-.0682.0465-.1426.04498-.2176Z"/></g><defs><clipPath id="a"><path fill="#fff" d="M0 0h20v20H0z"/></clipPath></defs></svg>