<svg viewBox="0 0 20 20" xmlns="http://www.w3.org/2000/svg"><path d="M14.646 7.146a.5.5 0 01.708 0l2.5 2.5a.5.5 0 010 .708l-2.5 2.5a.5.5 0 01-.708-.708l1.647-1.646H9a.5.5 0 010-1h7.293l-1.647-1.646a.5.5 0 010-.708zM3.48 3.48C3.174 3.783 3 4.163 3 4.5v11c0 .337.174.717.479 1.021.304.305.684.479 1.021.479H7v-4H4.5a.5.5 0 01-.5-.5v-5a.5.5 0 01.5-.5H7V3H4.5c-.337 0-.717.174-1.021.479zM7.5 2a.5.5 0 01.5.5v5a.5.5 0 01-.5.5H5v4h2.5a.5.5 0 01.5.5v5a.5.5 0 01-.5.5h-3c-.663 0-1.283-.326-1.729-.771C2.326 16.783 2 16.163 2 15.5v-11c0-.663.326-1.283.771-1.729C3.217 2.326 3.837 2 4.5 2h3z"/></svg>
